<mxfile host="app.diagrams.net" modified="2022-09-07T20:46:01.639Z" agent="5.0 (Windows NT 10.0; Win64; x64) AppleWebKit/537.36 (KHTML, like Gecko) Chrome/104.0.0.0 Safari/537.36" etag="rjlJWVMX9QxXonZ7UHto" version="20.2.8" type="github">
  <diagram id="C5RBs43oDa-KdzZeNtuy" name="Page-1">
    <mxGraphModel dx="1519" dy="1584" grid="1" gridSize="10" guides="1" tooltips="1" connect="1" arrows="1" fold="1" page="1" pageScale="1" pageWidth="827" pageHeight="1169" math="0" shadow="0">
      <root>
        <mxCell id="WIyWlLk6GJQsqaUBKTNV-0" />
        <mxCell id="WIyWlLk6GJQsqaUBKTNV-1" parent="WIyWlLk6GJQsqaUBKTNV-0" />
        <mxCell id="902p5l3oci4JaT40P5pT-4" value="начало" style="strokeWidth=2;html=1;shape=mxgraph.flowchart.terminator;whiteSpace=wrap;shadow=0;glass=0;sketch=0;fontSize=20;" vertex="1" parent="WIyWlLk6GJQsqaUBKTNV-1">
          <mxGeometry x="-644.25" y="-1140" width="120" height="70" as="geometry" />
        </mxCell>
        <mxCell id="902p5l3oci4JaT40P5pT-5" value="ввод a,b,h" style="shape=parallelogram;html=1;strokeWidth=2;perimeter=parallelogramPerimeter;whiteSpace=wrap;rounded=1;arcSize=12;size=0.23;shadow=0;glass=0;sketch=0;fontSize=21;" vertex="1" parent="WIyWlLk6GJQsqaUBKTNV-1">
          <mxGeometry x="-677.13" y="-1040" width="185.75" height="80" as="geometry" />
        </mxCell>
        <mxCell id="902p5l3oci4JaT40P5pT-6" value="" style="endArrow=classic;html=1;rounded=0;fontSize=17;exitX=0.5;exitY=1;exitDx=0;exitDy=0;exitPerimeter=0;entryX=0.5;entryY=0;entryDx=0;entryDy=0;strokeWidth=2;" edge="1" parent="WIyWlLk6GJQsqaUBKTNV-1" source="902p5l3oci4JaT40P5pT-4" target="902p5l3oci4JaT40P5pT-5">
          <mxGeometry width="50" height="50" relative="1" as="geometry">
            <mxPoint x="410" y="-660" as="sourcePoint" />
            <mxPoint x="460" y="-710" as="targetPoint" />
          </mxGeometry>
        </mxCell>
        <mxCell id="902p5l3oci4JaT40P5pT-7" value="a=b" style="strokeWidth=2;html=1;shape=mxgraph.flowchart.decision;whiteSpace=wrap;shadow=0;glass=0;sketch=0;fontSize=26;" vertex="1" parent="WIyWlLk6GJQsqaUBKTNV-1">
          <mxGeometry x="-684.25" y="-926.25" width="200" height="140" as="geometry" />
        </mxCell>
        <mxCell id="902p5l3oci4JaT40P5pT-8" value="" style="endArrow=classic;html=1;rounded=0;fontSize=14;exitX=0.5;exitY=1;exitDx=0;exitDy=0;entryX=0.5;entryY=0;entryDx=0;entryDy=0;entryPerimeter=0;strokeWidth=2;" edge="1" parent="WIyWlLk6GJQsqaUBKTNV-1" source="902p5l3oci4JaT40P5pT-5" target="902p5l3oci4JaT40P5pT-7">
          <mxGeometry width="50" height="50" relative="1" as="geometry">
            <mxPoint x="410" y="-660" as="sourcePoint" />
            <mxPoint x="190" y="-960" as="targetPoint" />
            <Array as="points" />
          </mxGeometry>
        </mxCell>
        <mxCell id="902p5l3oci4JaT40P5pT-10" value="да" style="endArrow=classic;html=1;rounded=0;fontSize=25;exitX=1;exitY=0.5;exitDx=0;exitDy=0;exitPerimeter=0;horizontal=1;verticalAlign=bottom;startArrow=none;entryX=0;entryY=0.5;entryDx=0;entryDy=0;strokeWidth=2;" edge="1" parent="WIyWlLk6GJQsqaUBKTNV-1" source="902p5l3oci4JaT40P5pT-7" target="902p5l3oci4JaT40P5pT-15">
          <mxGeometry width="50" height="50" relative="1" as="geometry">
            <mxPoint x="410" y="-830" as="sourcePoint" />
            <mxPoint x="250" y="-905" as="targetPoint" />
          </mxGeometry>
        </mxCell>
        <mxCell id="902p5l3oci4JaT40P5pT-13" value="нет" style="endArrow=classic;html=1;rounded=0;fontSize=22;exitX=0.5;exitY=1;exitDx=0;exitDy=0;exitPerimeter=0;horizontal=0;verticalAlign=bottom;spacing=2;spacingTop=2;spacingBottom=0;spacingLeft=0;spacingRight=6;entryX=0.5;entryY=0;entryDx=0;entryDy=0;entryPerimeter=0;strokeWidth=2;" edge="1" parent="WIyWlLk6GJQsqaUBKTNV-1" source="902p5l3oci4JaT40P5pT-7" target="902p5l3oci4JaT40P5pT-23">
          <mxGeometry width="50" height="50" relative="1" as="geometry">
            <mxPoint x="410" y="-840" as="sourcePoint" />
            <mxPoint x="140" y="-810" as="targetPoint" />
          </mxGeometry>
        </mxCell>
        <mxCell id="902p5l3oci4JaT40P5pT-17" value="А" style="ellipse;whiteSpace=wrap;html=1;aspect=fixed;shadow=0;glass=0;sketch=0;strokeWidth=2;fontSize=20;" vertex="1" parent="WIyWlLk6GJQsqaUBKTNV-1">
          <mxGeometry y="-897.5" width="82.5" height="82.5" as="geometry" />
        </mxCell>
        <mxCell id="902p5l3oci4JaT40P5pT-18" value="конец&lt;br&gt;" style="strokeWidth=2;html=1;shape=mxgraph.flowchart.terminator;whiteSpace=wrap;shadow=0;glass=0;sketch=0;fontSize=20;" vertex="1" parent="WIyWlLk6GJQsqaUBKTNV-1">
          <mxGeometry x="140" y="840" width="100" height="60" as="geometry" />
        </mxCell>
        <mxCell id="902p5l3oci4JaT40P5pT-19" value="" style="endArrow=classic;html=1;rounded=0;fontSize=20;entryX=0.5;entryY=0;entryDx=0;entryDy=0;entryPerimeter=0;exitX=0.5;exitY=1;exitDx=0;exitDy=0;strokeWidth=2;" edge="1" parent="WIyWlLk6GJQsqaUBKTNV-1" source="902p5l3oci4JaT40P5pT-82" target="902p5l3oci4JaT40P5pT-18">
          <mxGeometry width="50" height="50" relative="1" as="geometry">
            <mxPoint x="430" y="-230" as="sourcePoint" />
            <mxPoint x="460" y="-900" as="targetPoint" />
          </mxGeometry>
        </mxCell>
        <mxCell id="902p5l3oci4JaT40P5pT-20" value="" style="endArrow=classic;html=1;rounded=0;fontSize=20;exitX=0;exitY=0.5;exitDx=0;exitDy=0;strokeWidth=2;" edge="1" parent="WIyWlLk6GJQsqaUBKTNV-1" source="902p5l3oci4JaT40P5pT-21">
          <mxGeometry width="50" height="50" relative="1" as="geometry">
            <mxPoint x="530" y="-560" as="sourcePoint" />
            <mxPoint x="190" y="800" as="targetPoint" />
            <Array as="points">
              <mxPoint x="140" y="800" />
            </Array>
          </mxGeometry>
        </mxCell>
        <mxCell id="902p5l3oci4JaT40P5pT-21" value="А" style="ellipse;whiteSpace=wrap;html=1;aspect=fixed;shadow=0;glass=0;sketch=0;strokeWidth=2;fontSize=20;" vertex="1" parent="WIyWlLk6GJQsqaUBKTNV-1">
          <mxGeometry x="-47.5" y="760" width="80" height="80" as="geometry" />
        </mxCell>
        <mxCell id="902p5l3oci4JaT40P5pT-23" value="&lt;div style=&quot;font-size: 21px;&quot;&gt;(a&amp;gt;b) and (h&amp;gt;0) or&lt;/div&gt;&lt;div style=&quot;font-size: 21px;&quot;&gt;&amp;nbsp; (a&amp;lt;b) and (h&amp;lt;0) or&lt;/div&gt;&lt;div style=&quot;font-size: 21px;&quot;&gt;&amp;nbsp; &amp;nbsp;h=0 or&lt;/div&gt;&lt;div style=&quot;font-size: 21px;&quot;&gt;&amp;nbsp; &amp;nbsp;Abs(b-a)&amp;lt;=Abs(h)&lt;/div&gt;" style="strokeWidth=2;html=1;shape=mxgraph.flowchart.decision;whiteSpace=wrap;shadow=0;glass=0;sketch=0;fontSize=21;" vertex="1" parent="WIyWlLk6GJQsqaUBKTNV-1">
          <mxGeometry x="-727.09" y="-730" width="285.68" height="230" as="geometry" />
        </mxCell>
        <mxCell id="902p5l3oci4JaT40P5pT-15" value="func(a)" style="verticalLabelPosition=middle;verticalAlign=middle;html=1;shape=process;rounded=1;size=0.1;arcSize=6;shadow=0;glass=0;sketch=0;strokeWidth=2;fontSize=25;fillColor=none;horizontal=1;labelPosition=center;align=center;" vertex="1" parent="WIyWlLk6GJQsqaUBKTNV-1">
          <mxGeometry x="-430" y="-896.25" width="130" height="80" as="geometry" />
        </mxCell>
        <mxCell id="902p5l3oci4JaT40P5pT-25" value="" style="endArrow=classic;html=1;rounded=0;fontSize=25;exitX=1;exitY=0.5;exitDx=0;exitDy=0;entryX=0;entryY=0.5;entryDx=0;entryDy=0;strokeWidth=2;" edge="1" parent="WIyWlLk6GJQsqaUBKTNV-1" source="902p5l3oci4JaT40P5pT-15" target="902p5l3oci4JaT40P5pT-89">
          <mxGeometry width="50" height="50" relative="1" as="geometry">
            <mxPoint x="-780" y="-700" as="sourcePoint" />
            <mxPoint x="-730" y="-750" as="targetPoint" />
          </mxGeometry>
        </mxCell>
        <mxCell id="902p5l3oci4JaT40P5pT-26" value="да" style="endArrow=classic;html=1;rounded=0;fontSize=25;exitX=1;exitY=0.5;exitDx=0;exitDy=0;exitPerimeter=0;verticalAlign=bottom;strokeWidth=2;" edge="1" parent="WIyWlLk6GJQsqaUBKTNV-1" source="902p5l3oci4JaT40P5pT-23">
          <mxGeometry width="50" height="50" relative="1" as="geometry">
            <mxPoint x="-820" y="-650" as="sourcePoint" />
            <mxPoint x="-360" y="-615" as="targetPoint" />
          </mxGeometry>
        </mxCell>
        <mxCell id="902p5l3oci4JaT40P5pT-28" value="func(a)" style="verticalLabelPosition=middle;verticalAlign=middle;html=1;shape=process;rounded=1;size=0.1;arcSize=6;shadow=0;glass=0;sketch=0;strokeWidth=2;fontSize=25;fillColor=none;horizontal=1;labelPosition=center;align=center;" vertex="1" parent="WIyWlLk6GJQsqaUBKTNV-1">
          <mxGeometry x="-360" y="-656.25" width="120" height="82.5" as="geometry" />
        </mxCell>
        <mxCell id="902p5l3oci4JaT40P5pT-29" value="" style="endArrow=classic;html=1;rounded=0;fontSize=25;exitX=1;exitY=0.5;exitDx=0;exitDy=0;entryX=0;entryY=0.5;entryDx=0;entryDy=0;strokeWidth=2;" edge="1" parent="WIyWlLk6GJQsqaUBKTNV-1" source="902p5l3oci4JaT40P5pT-28" target="902p5l3oci4JaT40P5pT-114">
          <mxGeometry width="50" height="50" relative="1" as="geometry">
            <mxPoint x="-290" y="-846.25" as="sourcePoint" />
            <mxPoint x="-202.5000000000001" y="-613.125" as="targetPoint" />
          </mxGeometry>
        </mxCell>
        <mxCell id="902p5l3oci4JaT40P5pT-33" value="" style="endArrow=classic;html=1;rounded=0;fontSize=25;exitX=0.5;exitY=1;exitDx=0;exitDy=0;entryX=0.5;entryY=0;entryDx=0;entryDy=0;strokeWidth=2;" edge="1" parent="WIyWlLk6GJQsqaUBKTNV-1" source="902p5l3oci4JaT40P5pT-114" target="902p5l3oci4JaT40P5pT-84">
          <mxGeometry width="50" height="50" relative="1" as="geometry">
            <mxPoint x="-141.25" y="-570" as="sourcePoint" />
            <mxPoint x="-50" y="-615" as="targetPoint" />
          </mxGeometry>
        </mxCell>
        <mxCell id="902p5l3oci4JaT40P5pT-35" value="нет" style="endArrow=classic;html=1;rounded=0;fontSize=22;exitX=0.5;exitY=1;exitDx=0;exitDy=0;exitPerimeter=0;horizontal=0;verticalAlign=bottom;spacingRight=9;strokeWidth=2;" edge="1" parent="WIyWlLk6GJQsqaUBKTNV-1" source="902p5l3oci4JaT40P5pT-23">
          <mxGeometry width="50" height="50" relative="1" as="geometry">
            <mxPoint x="-540" y="-520" as="sourcePoint" />
            <mxPoint x="-584" y="-380" as="targetPoint" />
          </mxGeometry>
        </mxCell>
        <mxCell id="902p5l3oci4JaT40P5pT-36" value="i:=a" style="rounded=0;whiteSpace=wrap;html=1;absoluteArcSize=1;arcSize=14;strokeWidth=2;shadow=0;glass=0;sketch=0;fontSize=22;fillColor=none;" vertex="1" parent="WIyWlLk6GJQsqaUBKTNV-1">
          <mxGeometry x="-634" y="-380" width="100" height="60" as="geometry" />
        </mxCell>
        <mxCell id="902p5l3oci4JaT40P5pT-37" value="" style="endArrow=classic;html=1;rounded=0;fontSize=14;exitX=0.5;exitY=1;exitDx=0;exitDy=0;entryX=0.5;entryY=0;entryDx=0;entryDy=0;entryPerimeter=0;strokeWidth=2;" edge="1" parent="WIyWlLk6GJQsqaUBKTNV-1" source="902p5l3oci4JaT40P5pT-36" target="902p5l3oci4JaT40P5pT-39">
          <mxGeometry width="50" height="50" relative="1" as="geometry">
            <mxPoint x="-574.2549999999999" y="-950" as="sourcePoint" />
            <mxPoint x="-584" y="-250" as="targetPoint" />
            <Array as="points" />
          </mxGeometry>
        </mxCell>
        <mxCell id="902p5l3oci4JaT40P5pT-39" value="h&amp;gt;0" style="strokeWidth=2;html=1;shape=mxgraph.flowchart.decision;whiteSpace=wrap;shadow=0;glass=0;sketch=0;fontSize=22;fillColor=none;" vertex="1" parent="WIyWlLk6GJQsqaUBKTNV-1">
          <mxGeometry x="-664" y="-270" width="160" height="130" as="geometry" />
        </mxCell>
        <mxCell id="902p5l3oci4JaT40P5pT-40" value="да" style="endArrow=classic;html=1;rounded=0;fontSize=25;exitX=1;exitY=0.5;exitDx=0;exitDy=0;exitPerimeter=0;verticalAlign=bottom;entryX=0.5;entryY=0;entryDx=0;entryDy=0;entryPerimeter=0;strokeWidth=2;" edge="1" parent="WIyWlLk6GJQsqaUBKTNV-1" source="902p5l3oci4JaT40P5pT-39" target="902p5l3oci4JaT40P5pT-42">
          <mxGeometry width="50" height="50" relative="1" as="geometry">
            <mxPoint x="-431.4100000000003" y="-605" as="sourcePoint" />
            <mxPoint x="-250" y="-205.00000000000023" as="targetPoint" />
            <Array as="points">
              <mxPoint x="-7" y="-205" />
            </Array>
          </mxGeometry>
        </mxCell>
        <mxCell id="902p5l3oci4JaT40P5pT-42" value="i&amp;lt;=b-h/1000&lt;br&gt;and i&amp;lt;&amp;gt;b" style="strokeWidth=2;html=1;shape=mxgraph.flowchart.decision;whiteSpace=wrap;shadow=0;glass=0;sketch=0;fontSize=21;" vertex="1" parent="WIyWlLk6GJQsqaUBKTNV-1">
          <mxGeometry x="-107.5" y="-170" width="200" height="140" as="geometry" />
        </mxCell>
        <mxCell id="902p5l3oci4JaT40P5pT-48" value="нет" style="endArrow=classic;html=1;rounded=0;fontSize=22;exitX=0.5;exitY=1;exitDx=0;exitDy=0;exitPerimeter=0;horizontal=0;verticalAlign=bottom;spacing=2;spacingTop=2;spacingBottom=0;spacingLeft=0;spacingRight=6;entryX=0.5;entryY=0;entryDx=0;entryDy=0;entryPerimeter=0;strokeWidth=2;" edge="1" parent="WIyWlLk6GJQsqaUBKTNV-1" source="902p5l3oci4JaT40P5pT-39" target="902p5l3oci4JaT40P5pT-51">
          <mxGeometry width="50" height="50" relative="1" as="geometry">
            <mxPoint x="-574.25" y="-776.25" as="sourcePoint" />
            <mxPoint x="-584" y="22.461500901442307" as="targetPoint" />
          </mxGeometry>
        </mxCell>
        <mxCell id="902p5l3oci4JaT40P5pT-51" value="i&amp;gt;=b+h/1000&lt;br&gt;and i&amp;lt;&amp;gt;b" style="strokeWidth=2;html=1;shape=mxgraph.flowchart.decision;whiteSpace=wrap;shadow=0;glass=0;sketch=0;fontSize=21;" vertex="1" parent="WIyWlLk6GJQsqaUBKTNV-1">
          <mxGeometry x="-684.25" y="20" width="200" height="140" as="geometry" />
        </mxCell>
        <mxCell id="902p5l3oci4JaT40P5pT-52" value="да" style="endArrow=classic;html=1;rounded=0;fontSize=21;exitX=0.5;exitY=1;exitDx=0;exitDy=0;exitPerimeter=0;entryX=0.5;entryY=0;entryDx=0;entryDy=0;horizontal=0;verticalAlign=bottom;spacingRight=6;strokeWidth=2;" edge="1" parent="WIyWlLk6GJQsqaUBKTNV-1" source="902p5l3oci4JaT40P5pT-42" target="902p5l3oci4JaT40P5pT-58">
          <mxGeometry width="50" height="50" relative="1" as="geometry">
            <mxPoint x="-630" as="sourcePoint" />
            <mxPoint x="-7.5" y="-70" as="targetPoint" />
          </mxGeometry>
        </mxCell>
        <mxCell id="902p5l3oci4JaT40P5pT-54" value="" style="endArrow=classic;html=1;rounded=0;fontSize=21;entryX=0.5;entryY=0;entryDx=0;entryDy=0;exitX=0.5;exitY=1;exitDx=0;exitDy=0;strokeWidth=2;" edge="1" parent="WIyWlLk6GJQsqaUBKTNV-1" source="902p5l3oci4JaT40P5pT-58" target="902p5l3oci4JaT40P5pT-62">
          <mxGeometry width="50" height="50" relative="1" as="geometry">
            <mxPoint x="110" y="80" as="sourcePoint" />
            <mxPoint x="70" y="120" as="targetPoint" />
          </mxGeometry>
        </mxCell>
        <mxCell id="902p5l3oci4JaT40P5pT-55" value="i:=i+h;" style="rounded=0;whiteSpace=wrap;html=1;absoluteArcSize=1;arcSize=14;strokeWidth=2;shadow=0;glass=0;sketch=0;fontSize=22;fillColor=none;" vertex="1" parent="WIyWlLk6GJQsqaUBKTNV-1">
          <mxGeometry x="-57.5" y="320" width="100" height="60" as="geometry" />
        </mxCell>
        <mxCell id="902p5l3oci4JaT40P5pT-58" value="func(i)" style="verticalLabelPosition=middle;verticalAlign=middle;html=1;shape=process;rounded=1;size=0.1;arcSize=6;shadow=0;glass=0;sketch=0;strokeWidth=2;fontSize=25;fillColor=none;horizontal=1;labelPosition=center;align=center;" vertex="1" parent="WIyWlLk6GJQsqaUBKTNV-1">
          <mxGeometry x="-62.5" y="30" width="110" height="55" as="geometry" />
        </mxCell>
        <mxCell id="902p5l3oci4JaT40P5pT-59" value="" style="endArrow=classic;html=1;rounded=0;fontSize=21;exitX=0.5;exitY=1;exitDx=0;exitDy=0;entryX=0.5;entryY=0;entryDx=0;entryDy=0;strokeWidth=2;" edge="1" parent="WIyWlLk6GJQsqaUBKTNV-1" source="902p5l3oci4JaT40P5pT-62" target="902p5l3oci4JaT40P5pT-55">
          <mxGeometry width="50" height="50" relative="1" as="geometry">
            <mxPoint y="60" as="sourcePoint" />
            <mxPoint x="-10" y="140" as="targetPoint" />
          </mxGeometry>
        </mxCell>
        <mxCell id="902p5l3oci4JaT40P5pT-62" value="вывод&lt;br style=&quot;font-size: 20px;&quot;&gt;x,y" style="shape=parallelogram;perimeter=parallelogramPerimeter;whiteSpace=wrap;html=1;fixedSize=1;shadow=0;glass=0;sketch=0;strokeWidth=2;fontSize=20;fillColor=none;" vertex="1" parent="WIyWlLk6GJQsqaUBKTNV-1">
          <mxGeometry x="-94.06" y="160" width="173.12" height="90" as="geometry" />
        </mxCell>
        <mxCell id="902p5l3oci4JaT40P5pT-68" value="" style="endArrow=classic;html=1;rounded=0;fontSize=21;entryX=0.5;entryY=0;entryDx=0;entryDy=0;exitX=0.5;exitY=1;exitDx=0;exitDy=0;strokeWidth=2;" edge="1" parent="WIyWlLk6GJQsqaUBKTNV-1" source="902p5l3oci4JaT40P5pT-70" target="902p5l3oci4JaT40P5pT-72">
          <mxGeometry width="50" height="50" relative="1" as="geometry">
            <mxPoint x="-584" y="330" as="sourcePoint" />
            <mxPoint x="-582.51" y="295" as="targetPoint" />
          </mxGeometry>
        </mxCell>
        <mxCell id="902p5l3oci4JaT40P5pT-69" value="i:=i+h;" style="rounded=0;whiteSpace=wrap;html=1;absoluteArcSize=1;arcSize=14;strokeWidth=2;shadow=0;glass=0;sketch=0;fontSize=22;fillColor=none;" vertex="1" parent="WIyWlLk6GJQsqaUBKTNV-1">
          <mxGeometry x="-634.26" y="510" width="100" height="60" as="geometry" />
        </mxCell>
        <mxCell id="902p5l3oci4JaT40P5pT-70" value="func(i)" style="verticalLabelPosition=middle;verticalAlign=middle;html=1;shape=process;rounded=1;size=0.1;arcSize=6;shadow=0;glass=0;sketch=0;strokeWidth=2;fontSize=25;fillColor=none;horizontal=1;labelPosition=center;align=center;" vertex="1" parent="WIyWlLk6GJQsqaUBKTNV-1">
          <mxGeometry x="-639.26" y="230" width="110" height="55" as="geometry" />
        </mxCell>
        <mxCell id="902p5l3oci4JaT40P5pT-71" value="" style="endArrow=classic;html=1;rounded=0;fontSize=21;exitX=0.5;exitY=1;exitDx=0;exitDy=0;entryX=0.5;entryY=0;entryDx=0;entryDy=0;strokeWidth=2;" edge="1" parent="WIyWlLk6GJQsqaUBKTNV-1" source="902p5l3oci4JaT40P5pT-72" target="902p5l3oci4JaT40P5pT-69">
          <mxGeometry width="50" height="50" relative="1" as="geometry">
            <mxPoint x="-575.51" y="335" as="sourcePoint" />
            <mxPoint x="-585.51" y="415" as="targetPoint" />
          </mxGeometry>
        </mxCell>
        <mxCell id="902p5l3oci4JaT40P5pT-72" value="вывод&lt;br style=&quot;font-size: 20px;&quot;&gt;x,y" style="shape=parallelogram;perimeter=parallelogramPerimeter;whiteSpace=wrap;html=1;fixedSize=1;shadow=0;glass=0;sketch=0;strokeWidth=2;fontSize=20;fillColor=none;" vertex="1" parent="WIyWlLk6GJQsqaUBKTNV-1">
          <mxGeometry x="-668.1800000000001" y="350" width="168.37" height="90" as="geometry" />
        </mxCell>
        <mxCell id="902p5l3oci4JaT40P5pT-74" value="да" style="endArrow=classic;html=1;rounded=0;fontSize=21;exitX=0.5;exitY=1;exitDx=0;exitDy=0;exitPerimeter=0;horizontal=0;verticalAlign=bottom;spacingRight=5;strokeWidth=2;" edge="1" parent="WIyWlLk6GJQsqaUBKTNV-1" source="902p5l3oci4JaT40P5pT-51" target="902p5l3oci4JaT40P5pT-70">
          <mxGeometry width="50" height="50" relative="1" as="geometry">
            <mxPoint x="2.5" y="-125.00000000000023" as="sourcePoint" />
            <mxPoint x="2.5" y="-50" as="targetPoint" />
          </mxGeometry>
        </mxCell>
        <mxCell id="902p5l3oci4JaT40P5pT-75" value="нет" style="edgeStyle=segmentEdgeStyle;endArrow=classic;rounded=0;fontSize=20;exitX=1;exitY=0.5;exitDx=0;exitDy=0;exitPerimeter=0;labelPosition=left;verticalLabelPosition=top;align=right;verticalAlign=bottom;textDirection=ltr;horizontal=1;html=1;spacingLeft=6;spacingRight=66;spacingTop=7;spacingBottom=332;entryX=0;entryY=0.5;entryDx=0;entryDy=0;strokeWidth=2;" edge="1" parent="WIyWlLk6GJQsqaUBKTNV-1" source="902p5l3oci4JaT40P5pT-51" target="902p5l3oci4JaT40P5pT-81">
          <mxGeometry width="50" height="50" relative="1" as="geometry">
            <mxPoint x="-463" y="90" as="sourcePoint" />
            <mxPoint x="30" y="548" as="targetPoint" />
            <Array as="points">
              <mxPoint x="-280" y="90" />
              <mxPoint x="-280" y="548" />
            </Array>
          </mxGeometry>
        </mxCell>
        <mxCell id="902p5l3oci4JaT40P5pT-76" value="нет" style="edgeStyle=elbowEdgeStyle;elbow=horizontal;endArrow=classic;html=1;rounded=0;fontSize=20;exitX=1;exitY=0.5;exitDx=0;exitDy=0;exitPerimeter=0;spacingBottom=550;spacingRight=120;entryX=0.5;entryY=0;entryDx=0;entryDy=0;fontStyle=0;strokeWidth=2;" edge="1" parent="WIyWlLk6GJQsqaUBKTNV-1" source="902p5l3oci4JaT40P5pT-42" target="902p5l3oci4JaT40P5pT-81">
          <mxGeometry width="50" height="50" relative="1" as="geometry">
            <mxPoint x="-240" y="170" as="sourcePoint" />
            <mxPoint x="190" y="450" as="targetPoint" />
            <Array as="points">
              <mxPoint x="190" y="-100" />
            </Array>
          </mxGeometry>
        </mxCell>
        <mxCell id="902p5l3oci4JaT40P5pT-77" value="" style="edgeStyle=elbowEdgeStyle;elbow=horizontal;endArrow=classic;html=1;rounded=0;fontSize=20;exitX=0;exitY=0.5;exitDx=0;exitDy=0;entryX=0;entryY=0.5;entryDx=0;entryDy=0;entryPerimeter=0;strokeWidth=2;" edge="1" parent="WIyWlLk6GJQsqaUBKTNV-1" source="902p5l3oci4JaT40P5pT-69" target="902p5l3oci4JaT40P5pT-51">
          <mxGeometry width="50" height="50" relative="1" as="geometry">
            <mxPoint x="-240" y="170" as="sourcePoint" />
            <mxPoint x="-190" y="120" as="targetPoint" />
            <Array as="points">
              <mxPoint x="-800" y="180" />
              <mxPoint x="-770" y="170" />
            </Array>
          </mxGeometry>
        </mxCell>
        <mxCell id="902p5l3oci4JaT40P5pT-80" value="" style="edgeStyle=elbowEdgeStyle;elbow=horizontal;endArrow=classic;html=1;rounded=0;fontSize=20;exitX=0;exitY=0.5;exitDx=0;exitDy=0;entryX=0;entryY=0.5;entryDx=0;entryDy=0;entryPerimeter=0;strokeWidth=2;" edge="1" parent="WIyWlLk6GJQsqaUBKTNV-1" source="902p5l3oci4JaT40P5pT-55" target="902p5l3oci4JaT40P5pT-42">
          <mxGeometry width="50" height="50" relative="1" as="geometry">
            <mxPoint x="-648.1900000000003" y="565" as="sourcePoint" />
            <mxPoint x="-674.2500000000002" y="100" as="targetPoint" />
            <Array as="points">
              <mxPoint x="-210" y="60" />
              <mxPoint x="-760" y="180" />
            </Array>
          </mxGeometry>
        </mxCell>
        <mxCell id="902p5l3oci4JaT40P5pT-81" value="func(b)" style="verticalLabelPosition=middle;verticalAlign=middle;html=1;shape=process;rounded=1;size=0.1;arcSize=6;shadow=0;glass=0;sketch=0;strokeWidth=2;fontSize=25;fillColor=none;horizontal=1;labelPosition=center;align=center;" vertex="1" parent="WIyWlLk6GJQsqaUBKTNV-1">
          <mxGeometry x="130" y="510" width="120" height="75" as="geometry" />
        </mxCell>
        <mxCell id="902p5l3oci4JaT40P5pT-82" value="вывод&lt;br style=&quot;font-size: 20px;&quot;&gt;x,y" style="shape=parallelogram;perimeter=parallelogramPerimeter;whiteSpace=wrap;html=1;fixedSize=1;shadow=0;glass=0;sketch=0;strokeWidth=2;fontSize=20;fillColor=none;" vertex="1" parent="WIyWlLk6GJQsqaUBKTNV-1">
          <mxGeometry x="103.44" y="660" width="173.12" height="90" as="geometry" />
        </mxCell>
        <mxCell id="902p5l3oci4JaT40P5pT-83" value="" style="endArrow=classic;html=1;rounded=0;fontSize=20;exitX=0.5;exitY=1;exitDx=0;exitDy=0;entryX=0.5;entryY=0;entryDx=0;entryDy=0;strokeWidth=2;" edge="1" parent="WIyWlLk6GJQsqaUBKTNV-1" source="902p5l3oci4JaT40P5pT-81" target="902p5l3oci4JaT40P5pT-82">
          <mxGeometry width="50" height="50" relative="1" as="geometry">
            <mxPoint x="170" y="320" as="sourcePoint" />
            <mxPoint x="220" y="270" as="targetPoint" />
          </mxGeometry>
        </mxCell>
        <mxCell id="902p5l3oci4JaT40P5pT-84" value="вывод&lt;br style=&quot;font-size: 20px;&quot;&gt;x,y" style="shape=parallelogram;perimeter=parallelogramPerimeter;whiteSpace=wrap;html=1;fixedSize=1;shadow=0;glass=0;sketch=0;strokeWidth=2;fontSize=20;fillColor=none;" vertex="1" parent="WIyWlLk6GJQsqaUBKTNV-1">
          <mxGeometry x="-235.62" y="-520" width="173.12" height="90" as="geometry" />
        </mxCell>
        <mxCell id="902p5l3oci4JaT40P5pT-87" value="А" style="ellipse;whiteSpace=wrap;html=1;aspect=fixed;shadow=0;glass=0;sketch=0;strokeWidth=2;fontSize=20;" vertex="1" parent="WIyWlLk6GJQsqaUBKTNV-1">
          <mxGeometry x="-190.31" y="-380" width="82.5" height="82.5" as="geometry" />
        </mxCell>
        <mxCell id="902p5l3oci4JaT40P5pT-88" value="" style="endArrow=classic;html=1;rounded=0;fontSize=25;exitX=0.5;exitY=1;exitDx=0;exitDy=0;entryX=0.5;entryY=0;entryDx=0;entryDy=0;strokeWidth=2;" edge="1" parent="WIyWlLk6GJQsqaUBKTNV-1" source="902p5l3oci4JaT40P5pT-84" target="902p5l3oci4JaT40P5pT-87">
          <mxGeometry width="50" height="50" relative="1" as="geometry">
            <mxPoint x="-138.75" y="-577.5" as="sourcePoint" />
            <mxPoint x="-139.05999999999995" y="-510" as="targetPoint" />
          </mxGeometry>
        </mxCell>
        <mxCell id="902p5l3oci4JaT40P5pT-89" value="вывод&lt;br style=&quot;font-size: 20px;&quot;&gt;x,y" style="shape=parallelogram;perimeter=parallelogramPerimeter;whiteSpace=wrap;html=1;fixedSize=1;shadow=0;glass=0;sketch=0;strokeWidth=2;fontSize=20;fillColor=none;" vertex="1" parent="WIyWlLk6GJQsqaUBKTNV-1">
          <mxGeometry x="-230" y="-901.25" width="173.12" height="90" as="geometry" />
        </mxCell>
        <mxCell id="902p5l3oci4JaT40P5pT-90" value="" style="endArrow=classic;html=1;rounded=0;fontSize=25;exitX=1;exitY=0.5;exitDx=0;exitDy=0;entryX=0;entryY=0.5;entryDx=0;entryDy=0;strokeWidth=2;" edge="1" parent="WIyWlLk6GJQsqaUBKTNV-1" source="902p5l3oci4JaT40P5pT-89" target="902p5l3oci4JaT40P5pT-17">
          <mxGeometry width="50" height="50" relative="1" as="geometry">
            <mxPoint x="-290" y="-846.25" as="sourcePoint" />
            <mxPoint x="-210" y="-846.25" as="targetPoint" />
          </mxGeometry>
        </mxCell>
        <mxCell id="902p5l3oci4JaT40P5pT-94" value="func()&lt;br&gt;начало" style="strokeWidth=2;html=1;shape=mxgraph.flowchart.terminator;whiteSpace=wrap;shadow=0;glass=0;sketch=0;fontSize=20;" vertex="1" parent="WIyWlLk6GJQsqaUBKTNV-1">
          <mxGeometry x="420" y="-1140" width="120" height="70" as="geometry" />
        </mxCell>
        <mxCell id="902p5l3oci4JaT40P5pT-95" value="" style="endArrow=classic;html=1;rounded=0;fontSize=20;exitX=0.5;exitY=1;exitDx=0;exitDy=0;exitPerimeter=0;entryX=0.5;entryY=0;entryDx=0;entryDy=0;strokeWidth=2;" edge="1" parent="WIyWlLk6GJQsqaUBKTNV-1" source="902p5l3oci4JaT40P5pT-94" target="902p5l3oci4JaT40P5pT-96">
          <mxGeometry width="50" height="50" relative="1" as="geometry">
            <mxPoint x="40" y="-680" as="sourcePoint" />
            <mxPoint x="480" y="-1030" as="targetPoint" />
          </mxGeometry>
        </mxCell>
        <mxCell id="902p5l3oci4JaT40P5pT-96" value="ввод &lt;br&gt;переменной" style="shape=parallelogram;html=1;strokeWidth=2;perimeter=parallelogramPerimeter;whiteSpace=wrap;rounded=1;arcSize=12;size=0.23;shadow=0;glass=0;sketch=0;fontSize=21;" vertex="1" parent="WIyWlLk6GJQsqaUBKTNV-1">
          <mxGeometry x="387.1300000000001" y="-1030" width="185.75" height="80" as="geometry" />
        </mxCell>
        <mxCell id="902p5l3oci4JaT40P5pT-98" value="" style="endArrow=classic;html=1;rounded=0;fontSize=20;exitX=0.5;exitY=1;exitDx=0;exitDy=0;entryX=0.5;entryY=0;entryDx=0;entryDy=0;strokeWidth=2;" edge="1" parent="WIyWlLk6GJQsqaUBKTNV-1" source="902p5l3oci4JaT40P5pT-96" target="902p5l3oci4JaT40P5pT-99">
          <mxGeometry width="50" height="50" relative="1" as="geometry">
            <mxPoint x="400" y="-710" as="sourcePoint" />
            <mxPoint x="480" y="-860" as="targetPoint" />
          </mxGeometry>
        </mxCell>
        <mxCell id="902p5l3oci4JaT40P5pT-99" value="((x/9+x*x*x/4)&amp;gt;0) &lt;br&gt;and (Abs(x)&amp;gt;1E-14)" style="rhombus;whiteSpace=wrap;html=1;rounded=0;shadow=0;glass=0;sketch=0;strokeWidth=2;fontSize=20;fillColor=none;" vertex="1" parent="WIyWlLk6GJQsqaUBKTNV-1">
          <mxGeometry x="360" y="-890" width="240" height="130" as="geometry" />
        </mxCell>
        <mxCell id="902p5l3oci4JaT40P5pT-102" value="да" style="endArrow=classic;html=1;rounded=0;fontSize=25;exitX=1;exitY=0.5;exitDx=0;exitDy=0;horizontal=1;verticalAlign=bottom;startArrow=none;entryX=0.5;entryY=0;entryDx=0;entryDy=0;spacingRight=34;spacingBottom=33;strokeWidth=2;" edge="1" parent="WIyWlLk6GJQsqaUBKTNV-1" source="902p5l3oci4JaT40P5pT-99" target="902p5l3oci4JaT40P5pT-105">
          <mxGeometry width="50" height="50" relative="1" as="geometry">
            <mxPoint x="-474.25" y="-846.25" as="sourcePoint" />
            <mxPoint x="720" y="-740" as="targetPoint" />
            <Array as="points">
              <mxPoint x="680" y="-825" />
            </Array>
          </mxGeometry>
        </mxCell>
        <mxCell id="902p5l3oci4JaT40P5pT-105" value="result:=FloatToStrF&lt;br&gt;((-2.3*x/Sqrt(x/9+x*x*x/4))&lt;br&gt;*ArcTan(Exp(2*x)/&lt;br&gt;(1.11+x*x)),&lt;br&gt;ffFixed, 10,3)" style="rounded=0;whiteSpace=wrap;html=1;absoluteArcSize=1;arcSize=14;strokeWidth=2;shadow=0;glass=0;sketch=0;fontSize=22;fillColor=none;" vertex="1" parent="WIyWlLk6GJQsqaUBKTNV-1">
          <mxGeometry x="550" y="-680" width="260" height="160" as="geometry" />
        </mxCell>
        <mxCell id="902p5l3oci4JaT40P5pT-106" value="нет" style="endArrow=classic;html=1;rounded=0;fontSize=22;exitX=0;exitY=0.5;exitDx=0;exitDy=0;horizontal=1;verticalAlign=bottom;spacingRight=0;spacingLeft=105;entryX=0.5;entryY=0;entryDx=0;entryDy=0;spacingBottom=20;strokeWidth=2;" edge="1" parent="WIyWlLk6GJQsqaUBKTNV-1" source="902p5l3oci4JaT40P5pT-99" target="902p5l3oci4JaT40P5pT-107">
          <mxGeometry width="50" height="50" relative="1" as="geometry">
            <mxPoint x="-574.2500000000002" y="-489.9999999999998" as="sourcePoint" />
            <mxPoint x="240" y="-700" as="targetPoint" />
            <Array as="points">
              <mxPoint x="240" y="-825" />
            </Array>
          </mxGeometry>
        </mxCell>
        <mxCell id="902p5l3oci4JaT40P5pT-107" value="result:=&#39;нет значений&#39;" style="rounded=0;whiteSpace=wrap;html=1;absoluteArcSize=1;arcSize=14;strokeWidth=2;shadow=0;glass=0;sketch=0;fontSize=22;fillColor=none;" vertex="1" parent="WIyWlLk6GJQsqaUBKTNV-1">
          <mxGeometry x="140" y="-671.25" width="200" height="112.5" as="geometry" />
        </mxCell>
        <mxCell id="902p5l3oci4JaT40P5pT-108" value="" style="endArrow=classic;html=1;rounded=0;fontSize=20;exitX=0.5;exitY=1;exitDx=0;exitDy=0;entryX=0;entryY=0.5;entryDx=0;entryDy=0;strokeWidth=2;" edge="1" parent="WIyWlLk6GJQsqaUBKTNV-1" source="902p5l3oci4JaT40P5pT-107" target="902p5l3oci4JaT40P5pT-109">
          <mxGeometry width="50" height="50" relative="1" as="geometry">
            <mxPoint x="160" y="-410" as="sourcePoint" />
            <mxPoint x="350" y="-400" as="targetPoint" />
            <Array as="points">
              <mxPoint x="240" y="-385" />
            </Array>
          </mxGeometry>
        </mxCell>
        <mxCell id="902p5l3oci4JaT40P5pT-109" value="возврат result" style="shape=parallelogram;perimeter=parallelogramPerimeter;whiteSpace=wrap;html=1;fixedSize=1;shadow=0;glass=0;sketch=0;strokeWidth=2;fontSize=20;fillColor=none;" vertex="1" parent="WIyWlLk6GJQsqaUBKTNV-1">
          <mxGeometry x="393.45000000000005" y="-430" width="173.12" height="90" as="geometry" />
        </mxCell>
        <mxCell id="902p5l3oci4JaT40P5pT-110" value="" style="endArrow=classic;html=1;rounded=0;fontSize=20;exitX=0.5;exitY=1;exitDx=0;exitDy=0;entryX=0.5;entryY=0;entryDx=0;entryDy=0;strokeWidth=2;" edge="1" parent="WIyWlLk6GJQsqaUBKTNV-1" source="902p5l3oci4JaT40P5pT-105" target="902p5l3oci4JaT40P5pT-109">
          <mxGeometry width="50" height="50" relative="1" as="geometry">
            <mxPoint x="160" y="-550" as="sourcePoint" />
            <mxPoint x="560" y="-385" as="targetPoint" />
            <Array as="points">
              <mxPoint x="680" y="-480" />
              <mxPoint x="480" y="-480" />
            </Array>
          </mxGeometry>
        </mxCell>
        <mxCell id="902p5l3oci4JaT40P5pT-112" value="" style="endArrow=classic;html=1;rounded=0;fontSize=20;exitX=0.5;exitY=1;exitDx=0;exitDy=0;entryX=0.5;entryY=0;entryDx=0;entryDy=0;entryPerimeter=0;strokeWidth=2;" edge="1" parent="WIyWlLk6GJQsqaUBKTNV-1" source="902p5l3oci4JaT40P5pT-109" target="902p5l3oci4JaT40P5pT-113">
          <mxGeometry width="50" height="50" relative="1" as="geometry">
            <mxPoint x="160" y="-550" as="sourcePoint" />
            <mxPoint x="480" y="-290" as="targetPoint" />
          </mxGeometry>
        </mxCell>
        <mxCell id="902p5l3oci4JaT40P5pT-113" value="конец" style="strokeWidth=2;html=1;shape=mxgraph.flowchart.terminator;whiteSpace=wrap;shadow=0;glass=0;sketch=0;fontSize=20;" vertex="1" parent="WIyWlLk6GJQsqaUBKTNV-1">
          <mxGeometry x="420.01" y="-290" width="120" height="70" as="geometry" />
        </mxCell>
        <mxCell id="902p5l3oci4JaT40P5pT-114" value="func(a)" style="verticalLabelPosition=middle;verticalAlign=middle;html=1;shape=process;rounded=1;size=0.1;arcSize=6;shadow=0;glass=0;sketch=0;strokeWidth=2;fontSize=25;fillColor=none;horizontal=1;labelPosition=center;align=center;" vertex="1" parent="WIyWlLk6GJQsqaUBKTNV-1">
          <mxGeometry x="-209.06" y="-656.25" width="120" height="82.5" as="geometry" />
        </mxCell>
      </root>
    </mxGraphModel>
  </diagram>
</mxfile>
